<?xml version="1.0" encoding="utf-8"?>
<!-- Generator: Adobe Illustrator 23.0.2, SVG Export Plug-In . SVG Version: 6.00 Build 0)  -->
<svg version="1.1" id="Layer_1" xmlns="http://www.w3.org/2000/svg" xmlns:xlink="http://www.w3.org/1999/xlink" x="0px" y="0px"
	 viewBox="0 0 38 38" style="enable-background:new 0 0 38 38;" xml:space="preserve">
<g>
	<g>
		<path d="M19.6,10.1c0,1-0.2,2-0.5,3c-0.3,0.9-0.7,1.8-1.3,2.5c-0.5,0.8-1.2,1.4-2,2.1c-0.8,0.6-1.6,1.1-2.5,1.4l3.4,3.4l-3.4,3.4
			v2.7l2.1,2.1l-2.1,2.1v4.8H6.5V19c-0.9-0.3-1.7-0.8-2.5-1.4c-0.8-0.6-1.4-1.3-2-2.1c-0.5-0.8-1-1.6-1.3-2.5
			c-0.3-0.9-0.5-1.9-0.5-3c0-1.3,0.2-2.6,0.7-3.7c0.5-1.2,1.2-2.2,2.1-3.1C4,2.4,5,1.7,6.2,1.2C7.4,0.6,8.6,0.4,10,0.4
			c1.4,0,2.6,0.3,3.8,0.8c1.2,0.5,2.2,1.2,3.1,2.1c0.9,0.9,1.6,1.9,2.1,3.1C19.4,7.5,19.6,8.7,19.6,10.1z M13,17.8
			c0.8-0.3,1.5-0.8,2.1-1.3c0.7-0.5,1.2-1.1,1.7-1.8c0.4-0.7,0.8-1.4,1-2.2c0.2-0.8,0.4-1.6,0.4-2.5c0-1.1-0.2-2.2-0.7-3.2
			c-0.4-1-1-1.9-1.7-2.6c-0.8-0.8-1.7-1.4-2.7-1.8c-1-0.4-2.1-0.7-3.2-0.7C8.9,1.8,7.8,2,6.8,2.4c-1,0.4-1.9,1-2.7,1.8
			C3.4,4.9,2.8,5.8,2.4,6.8c-0.4,1-0.7,2.1-0.7,3.2c0,0.9,0.1,1.7,0.4,2.5c0.2,0.8,0.6,1.5,1,2.2c0.5,0.7,1.1,1.2,1.7,1.8
			C5.5,17,6.2,17.4,7,17.8l0.9,0.3v18.1H12v-4l1.6-1.5L12,29.2v-3.9l3-2.9l-3-2.9v-1.5L13,17.8z M9.3,6v5.5h1.4V6H9.3z"/>
	</g>
	<g>
		<path d="M18.4,27.9c0-1,0.2-2,0.5-3c0.3-0.9,0.7-1.8,1.3-2.5c0.5-0.8,1.2-1.4,2-2.1c0.8-0.6,1.6-1.1,2.5-1.4l-3.4-3.4l3.4-3.4V9.4
			l-2.1-2.1l2.1-2.1V0.4h6.9V19c0.9,0.3,1.7,0.8,2.5,1.4c0.8,0.6,1.4,1.3,2,2.1c0.5,0.8,1,1.6,1.3,2.5c0.3,0.9,0.5,1.9,0.5,3
			c0,1.3-0.2,2.6-0.7,3.7c-0.5,1.2-1.2,2.2-2.1,3.1c-0.9,0.9-1.9,1.6-3.1,2.1c-1.2,0.5-2.4,0.8-3.7,0.8c-1.4,0-2.6-0.3-3.8-0.8
			c-1.2-0.5-2.2-1.2-3.1-2.1c-0.9-0.9-1.6-1.9-2.1-3.1C18.6,30.5,18.4,29.3,18.4,27.9z M25,20.2c-0.8,0.3-1.5,0.8-2.1,1.3
			c-0.7,0.5-1.2,1.1-1.7,1.8c-0.4,0.7-0.8,1.4-1,2.2c-0.2,0.8-0.4,1.6-0.4,2.5c0,1.1,0.2,2.2,0.7,3.2c0.4,1,1,1.9,1.7,2.6
			c0.8,0.8,1.7,1.4,2.7,1.8c1,0.4,2.1,0.7,3.2,0.7c1.1,0,2.1-0.2,3.2-0.7c1-0.4,1.9-1,2.7-1.8c0.7-0.7,1.3-1.6,1.7-2.6
			c0.4-1,0.7-2.1,0.7-3.2c0-0.9-0.1-1.7-0.4-2.5c-0.2-0.8-0.6-1.5-1-2.2c-0.5-0.7-1.1-1.2-1.7-1.8c-0.7-0.5-1.4-0.9-2.1-1.3
			l-0.9-0.3V1.8H26v4l-1.6,1.5L26,8.8v3.9l-3,2.9l3,2.9v1.5L25,20.2z M28.7,32v-5.5h-1.4V32H28.7z"/>
	</g>
</g>
</svg>
